<mxfile host="app.diagrams.net" modified="2023-10-12T02:33:51.723Z" agent="Mozilla/5.0 (Windows NT 10.0; Win64; x64; rv:109.0) Gecko/20100101 Firefox/118.0" etag="07U-d-x2hIo6jP7eGl0H" version="22.0.4" type="github">
  <diagram id="C5RBs43oDa-KdzZeNtuy" name="Page-1">
    <mxGraphModel dx="954" dy="594" grid="1" gridSize="10" guides="1" tooltips="1" connect="1" arrows="1" fold="1" page="1" pageScale="1" pageWidth="827" pageHeight="1169" math="0" shadow="0">
      <root>
        <mxCell id="WIyWlLk6GJQsqaUBKTNV-0" />
        <mxCell id="WIyWlLk6GJQsqaUBKTNV-1" parent="WIyWlLk6GJQsqaUBKTNV-0" />
        <mxCell id="fl4PL2wpEhBERIYH_MPt-14" value="" style="edgeStyle=orthogonalEdgeStyle;rounded=0;orthogonalLoop=1;jettySize=auto;html=1;" edge="1" parent="WIyWlLk6GJQsqaUBKTNV-1" source="fl4PL2wpEhBERIYH_MPt-5" target="fl4PL2wpEhBERIYH_MPt-6">
          <mxGeometry relative="1" as="geometry" />
        </mxCell>
        <mxCell id="fl4PL2wpEhBERIYH_MPt-5" value="" style="rounded=1;whiteSpace=wrap;html=1;" vertex="1" parent="WIyWlLk6GJQsqaUBKTNV-1">
          <mxGeometry x="210" y="80" width="125" height="60" as="geometry" />
        </mxCell>
        <mxCell id="fl4PL2wpEhBERIYH_MPt-15" value="" style="edgeStyle=orthogonalEdgeStyle;rounded=0;orthogonalLoop=1;jettySize=auto;html=1;" edge="1" parent="WIyWlLk6GJQsqaUBKTNV-1" source="fl4PL2wpEhBERIYH_MPt-6">
          <mxGeometry relative="1" as="geometry">
            <mxPoint x="275" y="300" as="targetPoint" />
          </mxGeometry>
        </mxCell>
        <mxCell id="fl4PL2wpEhBERIYH_MPt-6" value="" style="shape=parallelogram;perimeter=parallelogramPerimeter;whiteSpace=wrap;html=1;fixedSize=1;" vertex="1" parent="WIyWlLk6GJQsqaUBKTNV-1">
          <mxGeometry x="205" y="200" width="135" height="60" as="geometry" />
        </mxCell>
        <mxCell id="fl4PL2wpEhBERIYH_MPt-19" value="" style="edgeStyle=orthogonalEdgeStyle;rounded=0;orthogonalLoop=1;jettySize=auto;html=1;" edge="1" parent="WIyWlLk6GJQsqaUBKTNV-1" source="fl4PL2wpEhBERIYH_MPt-10">
          <mxGeometry relative="1" as="geometry">
            <mxPoint x="412.5" y="465" as="targetPoint" />
          </mxGeometry>
        </mxCell>
        <mxCell id="fl4PL2wpEhBERIYH_MPt-20" value="" style="edgeStyle=orthogonalEdgeStyle;rounded=0;orthogonalLoop=1;jettySize=auto;html=1;" edge="1" parent="WIyWlLk6GJQsqaUBKTNV-1" source="fl4PL2wpEhBERIYH_MPt-10" target="fl4PL2wpEhBERIYH_MPt-11">
          <mxGeometry relative="1" as="geometry" />
        </mxCell>
        <mxCell id="fl4PL2wpEhBERIYH_MPt-10" value="" style="rhombus;whiteSpace=wrap;html=1;" vertex="1" parent="WIyWlLk6GJQsqaUBKTNV-1">
          <mxGeometry x="231.25" y="410" width="90" height="110" as="geometry" />
        </mxCell>
        <mxCell id="fl4PL2wpEhBERIYH_MPt-11" value="" style="shape=hexagon;perimeter=hexagonPerimeter2;whiteSpace=wrap;html=1;fixedSize=1;" vertex="1" parent="WIyWlLk6GJQsqaUBKTNV-1">
          <mxGeometry x="216.25" y="560" width="120" height="80" as="geometry" />
        </mxCell>
        <mxCell id="fl4PL2wpEhBERIYH_MPt-21" value="" style="edgeStyle=orthogonalEdgeStyle;rounded=0;orthogonalLoop=1;jettySize=auto;html=1;" edge="1" parent="WIyWlLk6GJQsqaUBKTNV-1" source="fl4PL2wpEhBERIYH_MPt-17" target="fl4PL2wpEhBERIYH_MPt-10">
          <mxGeometry relative="1" as="geometry" />
        </mxCell>
        <mxCell id="fl4PL2wpEhBERIYH_MPt-17" value="" style="rounded=0;whiteSpace=wrap;html=1;" vertex="1" parent="WIyWlLk6GJQsqaUBKTNV-1">
          <mxGeometry x="217.5" y="300" width="117.5" height="70" as="geometry" />
        </mxCell>
      </root>
    </mxGraphModel>
  </diagram>
</mxfile>
